<svg enable-background="new 0 0 1080 1080" viewBox="0 0 1080 1080" xmlns="http://www.w3.org/2000/svg"><path d="m542.5 979.8c-18.1-.3-35.4-9.8-49.5-21.2-60.9-58.1-175.1-174.5-259.9-259.6-73.4-74.6-110.9-110.6-134-136.6-.4-.9 17.1-1.1 129.7-1 96.7.1 131.3.4 134.8 1 64.3 19 87.9 93.6 109.8 150.2 14.4 35.9 32.5 73.3 54 105.1 28.4 42.1 62.3 74.1 110.1 91.9.2.5-11.9 12.9-26.7 27.5-20.7 20.6-28.5 27.8-33.7 31.2-10.5 7.2-22.3 11.4-34.6 11.5zm131.4-110.9c-85.7-5-138.5-122.3-165.3-192.8-11.7-33.1-26.1-62.4-45.6-90.8-4-6-12.4-17.4-14.9-22.6-.4-1.5 1.4-1.5 107.1-1.3 59.1.1 109.2.2 111.3.2 7.1-.6 1.2 3.9-1 8.8-23.8 35.5-31.9 82.2-16.4 122.8 15.6 46.7 60 81.8 109.5 84.2 5.3.4 9.8.9 10.1 1.2.2.2-19.8 20.6-44.5 45.4-44.8 45-44.8 45-50.3 44.9zm65.4-307.1c236.9 3.6 258.1-11 230.7 13-16.2 15.4-121.4 127.6-139.9 135.9-24 15.2-54.7 25-82.8 18.3-43.2-10.5-69.5-59.5-57.8-101.7 7.6-26.6 29.2-47.3 49.8-65.5zm-199.7-41.9c-288 0-440.9-.2-440.8-.8-.1-.9 47.4-48.5 48.3-48.3 2-1.2 5.7-1.4 27.9-1.8 14-.2 31.3-.6 38.4-.9 93.5-4 187-11.5 277.6-36.4 49.9-14.7 142.3-45.7 141.8-108-4.3-39.5-47.6-60.4-82-69.7-73.7-18.4-154.2 1.4-218.3 40.3-7.8 4.2-20 13.9-25.9 16.4-.2-.2 44.2-45.1 98.8-99.6 97.3-93.9 87.4-93.3 117.5-109 17.5-6.4 38.5.4 52.6 11.7-5.8-6.5 412.6 410.9 405.5 405.6-.2.3-198.9.5-441.4.5z"/></svg>