<svg enable-background="new 0 0 1920 1080" viewBox="0 0 1920 1080" xmlns="http://www.w3.org/2000/svg"><path d="m129.9 775c-1 18.7 1.8 20.8-6 29.7-5.2 4.5-7.7 4.7-12.8-.4-3.2-3.2-3.9-4.5-4.5-8.9-.4-2.9-.8-19.1-.8-36.1 1.2-31.4-3.2-30.4 6-37.4 3.3-1.8 3.3-1.8 8.3.9 10.3 3.2 8.6 22.4 11.7 29.8 79.5 1.6 178.8-.7 267.6-.7 287.7-2.5 753.4-2.9 1036-6.7 20.9-2.9 36.3-8.6 63.1-17.4 74.6-25.5 140-46.5 216.7-55.6 19.3-1.5 53.3-3.8 69.9 4.8 10.9 5.8 26.8 22.8 30.8 35.2 5.7 15.5 3.2 21.9 4.1 48 .1 39.9-.7 40.2-18.8 62.4-17 18.1-39.8 15.3-63 16.7-31.4 1.4-62.6-6-93.3-12.4-39-8.5-80.8-19.5-120.1-31.3-17.2-5.2-54-16.8-69.2-21.1-7.1-1.9-10.6-2.3-34.2-3.2-289.9-2.2-991.7 1.2-1291.5 3.7zm-29.8-447.8c254.8 1.4 242.4-6.7 386 2.7 37.1 8.8 57.4 39.8 55.2 78.9.9 32.1-8.8 55.6-36.4 69.8-4.6 2.3-11.4 4.8-15.1 5.6-6.3 1.5-6.8 1.8-6.8 3.9-.6 3.9 10.5 4.6 14.7 7.1 12.5 5.2 23.9 13.4 31.2 25.1 18.2 27.5 18.6 87.4-5.4 111.8-12.8 14-28.2 19.9-46.6 23-22.8 2-253.7 2.5-299.3 2.6-42.2.2-76.9.1-77.1-.2-.3-14.3-.7-270.9-.4-330.3zm897.8-7.7c-4.1 174.4 16.5 205.3-34.3 278-17.1 20.5-37.4 33-62.8 41.8-38.1 11.3-34.5 8.6-90.4 10.1-31.9 1.1-225.4.9-252.2.3-.3-.4-.6-41.7-.6-91.9 2.4-111.2-6.9-91.8 16.4-155.3 13.9-30.7 40.4-55.6 71.3-68.4 14.1-6 30.6-10.7 46.3-12.8 7.6-1.1 32.8-1.5 148.1-2.3 98.4-.4 135.6-1.6 158.2.5zm160.4 328.6-.9-254.5c-26.7-.2-139.7-.9-146.5-1.4-.9-.3-1.1-8.4-1.1-36.4 0-36 0-36 2.3-36.8 9 .4 389.9-5.2 368.8 3.2.3 2.3.5 18.8.5 36.8 0 32.7 0 32.7-1.9 33.2-7.6.6-117.9.8-144.9.9l.4 10.5c.7-1.1.6 245-.3 244.7-3.7 1.1-74.4.8-76.4-.2zm656.4-330.4c1.1 56.8 1.1 70.8.5 71.9-.8 1.8-.8 1.8-171.8 2.2-109.6.3-171.2.6-171.8 1.2-.4.5-.6 11.7-.4 27.3.4 26.5.4 26.5 3.6 26.9 1.8.3 67.3.4 145.7.1 142.6-.4 142.6-.4 142.8 3.3.2 2 .2 16.7 0 32.6-.1 15.9-.3 30.1-.2 31.6 0 2.7 0 2.7-143 3.3-96.9 2.9-146.7-4.4-143.5 5.4 5.9 20.7 25.1 39.2 46.1 44.3 2.9.8 8.2 2.1 11.8 2.8 5.9 1.2 21.6 1.5 143.3 1.8 128.3.4 136.7.4 137 1.8 1 21.5 1.9 50.1 1.1 73-66-1.1-268.2 2.5-297-3-20.9-3.5-43.8-12.8-61.3-24.7-19.3-13.2-36.4-32.6-46.4-54.1-5.7-11.8-10.9-27.8-13.4-40.9-6-38.1-3.1-45.2-4-121.2 0-46.7.4-85.2.7-85.4 18.1-.2 344.7-.4 420.2-.2zm-1575 208.2c-.7-9.8-.9-24.7-.8-39.4.2-26.7.2-26.7 5.4-27.3 4.2-.8 186.7-.6 190.8-1.5 18.1-.3 25.7-16.3 24.2-32.3-.7-14.9-9.1-23.3-24.7-23.9-6.5-1-240-.9-246.4-.3 0 0-9.8.5-9.8.5-.1 36.7-.6 150.3-.3 168.2.3 13.4.4 13.8 2.2 14.1 33.2.7 159.3.4 201.3-.2 59.5-2.2 52.3 2.6 69.2-5.6 15-12.5 11.6-44.7-8.1-50.9 7.7-2.1-169.4-1.1-203-1.4zm458.5 49.5c50.3-.5 120.4-.4 157.7-2.2 16.4-2.2 33.2-5.4 45.1-18.2 22.9-28.8 17.4-35.3 19-101 .3-59.3.3-59.3-4.3-59.6-2.5-.2-47.7-.2-100.2-.2-86.9 3.9-150.1-14.5-173.3 38.9-1.2 3.2-3.4 11.4-4.7 18.4-2.5 12.7-2.5 12.7-2.5 67 0 29.9.3 55 .6 55.8.7 1.3 4.6 1.4 62.6 1.1zm-117.9-333.5c229.5 0 268.5-.3 420.7-1.2-.1 13.5-.4 40.8-.5 54.3-104.9.1-359.2 1.6-419.2 1.3-1.4.6-.8-45.4-1-54.4z"/></svg>