<svg enable-background="new 0 0 1720.2 1080" viewBox="0 0 1720.2 1080" xmlns="http://www.w3.org/2000/svg"><path d="m532.4 843.9c-238.2-1.7-425.2 2.6-430.9-2.1 60-55.4 131.4-118.6 192.3-173.6 103.7-93.3 208-187.2 312.3-280.8 12.7-11 29.7-27.1 21.1-14.7-24.9 30.1-52.4 62.3-78.9 93.6-74.3 87.6-148.7 176.1-222.9 264-12.2 14.7-32.9 37.3-40.7 49.2 14.1 5.3 450.7 2.3 507.8 3.6 148.3-1.6 102.9 4 156.4-7.7 14.4-3.8 30.4-9.3 44.6-15.3 122.4-51.4 116.2-166.6 27.3-249.6-32.5-29.9-51.7-41.4-95.4-62.8-53.4-26.5-90.3-47.1-136.1-79.8-49.7-35.6-102.5-84.1-122.2-142.9-2.9-13.2 18.5 15.8 21.5 18.4 25.8 30.1 63.2 61.5 96.7 82.8 50.7 30.8 100.9 55.9 158.9 74.4 91.1 30.6 181.1 63.7 253.5 127.5 150.2 127.8 35.1 229.4-105.9 283.1-29.2 11.2-64.3 22.4-93.6 28.4-49.7 8.9-195.9 2.1-465.8 4.3zm672.7-2.4c-24 4.5 49.9-28.2 53.4-31.8 42.6-23.9 81.1-48 115.1-83 143.7-141.9-86.6-252.3-204.8-290.9-114.4-39.3-352.9-97.2-425.6-187.4.9-2.9 7 1.2 10.4 2.8 16.1 9.2 25.7 13.7 52.8 27.6 94.5 50 193.4 66.2 296.2 89.2 108.2 25 218.3 54.7 321.8 94.4 438.9 202 32.9 333.3-219.3 379.1z"/></svg>