<svg enable-background="new 0 0 2320 1080" viewBox="0 0 2320 1080" xmlns="http://www.w3.org/2000/svg"><path d="m1147.4 421c73.5 1.9 77.9-2.8 72.7 7.3-17.1 29.4-48.3 85.2-64 115.7-8 19.1-17.9 54.2 3.8 66.7 20.3 5.3 40.1-2.1 55.7-19.1 20.5-21.6 24.7-35.7 43.4-67.6 23.6-42.5 34-61.8 56.6-102.3 11.5.3 81-2.1 76.6 1.1-.3 1.1-4.3 8.4-9 16.5-34.7 59.9-82.5 143.3-119.8 208.7-31.7 51.8-44.9 91.9-85.2 123.5-36.3 26.7-98.3 42.3-134.7 9-14.9-13.1-28.6-41.6-31.9-60.9-1.1-7.2-1.1-7.2 31.9-7.2 24.6 0 33.3.5 34.5 1.8 22.7 34.5 51.6 12 68.9-14.7 2.7-4.1 4.4-7.9 3.7-8.5-5.3-2.8-13.4-4.5-20.5-8.5-34.7-16.5-50-52-51.3-89.5-4.7-59.2 35.5-112.7 68.6-172zm-807.6 167.3c-185.3-.6-239.5-1.1-239.8-1.4 6.1-15.7 24.8-44.9 35.1-63.5h108.7c108.7 0 108.7 0 112.1-8.1 22.5-46.6 71.3-94.9 127-92.2 46.1-.4 83.7 37.5 87.9 81.5-.6 1.4-9 1.8-35.1 1.8-34.5 0-34.5 0-35.7-3.5-14.1-24.1-44.7-12.6-58.6 7.6-4.6 5.6-7.8 10.8-7.2 11.4 6.8 1.4 115.2.5 141.1.3 34.2-63.4 103.6-128.9 178.2-86.6 33.9 20.5 20.1 33.7 47.6-13.3 23.1-41 38.8-69.1 58.8-105.3 4.6-8.4 4.6-8.4 46.1-8.9 36.6-.3 41.5-.2 41.5 2-24.7 45.9-61.6 104.1-86.7 150.1-.5 4.8 5.3-1.3 10.4-5 4.6-3.8 14-9.6 21.1-13 39.8-19.8 92.7-26.3 126.4 7.3 4 3.7 7.6 6.1 8.2 5.5s14.4-24 30.5-51.6c24.3-41.8 38.3-65 55.9-94.7 11.9.8 91.3-3.2 82.7 1.8-.3 1.5-4.3 9.2-9 17.3-31.4 54.8-107.2 183.9-139.5 240.3-15.1 26.3-31.7 56.4-52.1 78.3-25.6 27.4-61.5 48.8-99.8 43.2-58.7-5.9-84.2-65.4-81.7-119.7-.2-26.7-.7-24.2-9.9-5.6-13.3 24.7-35.8 57.9-56.3 77.6-55.4 58.2-146.3 66.1-176.3-20.3-15.4-46.6 12.4-31.5-88.1-34.3-79.7 0-79.7 0-78.9 6.7 2.3 14 10.5 24.8 26.9 23.7 11.9.6 22-5.2 30.5-11.3 5.2-4 5.2-4 47.8-4 33.9 0 42.4.5 42.1 2-2.7 7.2-11.6 20.5-17.4 28.7-24 32.1-59 55.5-100.8 54.3-17.5-.2-26.2-1.2-39.2-7.6-33.8-16.7-47.9-56.6-54.5-91.5zm916.9 103c38.6-66.9 180.5-317 217.7-379.7 2.4-3.4 2.7-3.4 41.5-3.4 37.4 0 38.9.2 38.3 2.9-66.6 118.3-146.9 262.1-213.6 380.3-20.9 0-63 0-84 0v-.1zm177.1 0c-71 0-73.3-.2-72.7-2.7 43.6-78.8 105.1-186 149.9-264.1 2.4-3.4 2.9-3.4 39.1-3.4 22.3 0 36.6.6 36.6 1.5 0 .8-13.4 24.9-29.8 53.4-28.6 50.2-88.6 155-123.1 215.3zm758-104.5c-357.5 6.3-353.8-12.6-347.6 16 4.7 7.8 11.1 12.9 21.7 12.2 10.5.1 19-4.3 27.2-9.8 5.8-4 5.8-4 50.7-4 42 0 44.9.2 44.1 2.7-26.6 53.3-83.8 100.2-146.6 84-37.8-11.1-59.2-52.5-64.4-89.6-1.7-13-1.7-13-4.7-9.6-12.1 17.4-20.5 34.7-38.3 63.8-31.5 49.8-13.1 36.2-67.2 38.9-21.4 0-39.1-.6-39.5-1.4-.5-.8 4.6-11.4 11.3-23.8 13.9-31.8 71.7-115.4 63.1-145.5-2.2-21.3-23.4-34.6-42.6-24-11.6 6-25.3 22-32.8 33.6-22.2 32.8-70.4 130.8-94.3 159.8-2 .8-19.1 1.4-37.9 1.2-30.7-1.4-39.6 3-32.8-8.7 30.8-52.2 113.9-207.4 145.2-259.1 2.4-2.6 5.6-2.7 50.5-2.1 45.2.6 48.5.8 57.4 4.1 43.1 14.1 62.2 64.1 68.8 104.4 6.4-6.3 18.9-35.2 27-44.6 18-24.8 43.4-47 72.4-56 52.8-16 115.8 10.4 122.6 69.3 1.1 7.9 1.1 7.9-39.2 7.9-40.5 0-40.5 0-46.1-4.6-6.6-6.6-20.3-5.3-27.9-1.7-4.9 2.3-18.2 14.4-19.8 19.1 12.2 7.4 330.4-1.4 347.3 6.4-1.8 5.2-22.2 48.7-27.6 61.1zm-1535.5 32.8c48.7 1.1 101.8-129.8 43.5-129.5-33.3-1.7-58.9 47.7-66.7 75.3-5.3 20.4-3.2 53.6 23.2 54.2zm251.9-.5c36.3-4.7 62-55.9 65.8-89.2 1.2-18 1.1-40.8-22.9-39.8-10.2-.5-12.7-.2-20 3.5-13.1 6.8-20 17.5-29 30.8-12.4 17.9-19 33.8-21.4 54.2-1.8 17.5 5.4 43.6 27.5 40.5zm659.8-228.5c-31.1 0-39.5-.5-38.9-1.8 9.1-17.1 34.4-58.2 43.8-75.3 2.6-4.6 2.6-4.6 40.5-5 20.8-.2 38.2 0 38.6.3.5.3-3.2 7.6-7.9 16-8.9 15.9-23.9 42.4-31.8 56.9-4.6 8.9-4.6 8.9-44.3 8.9z"/></svg>