<svg enable-background="new 0 0 1080 1080" viewBox="0 0 1080 1080" xmlns="http://www.w3.org/2000/svg"><path d="m980 540c-.8-112.9-42.3-221.6-116.3-295.9-13.1-.8-23-2-38.1-2-75.6-1.8-152.1 4.5-221.7 35.4-50.8 23.5-91.2 66.4-113.4 117.5-2.9 6.7-6.2 15.2-8.2 21.9-.7 2.3-.7 2.3-3.7 2.5-12.3.5-66.2.8-80.7 1.2-15.2.9-18.5-1.2-21 2.4-10.3 14.8-18.1 34.4-21.6 52.1-1.8 4 99.8-.3 102.1 2.8-9.2 29.3-22.6 71.3-31.9 100.8-11.4 36-23 72.6-34.6 109.1-7.2 28.5-17.9 49.3-33.8 73.1-7.7 11.4-15.5 25.1-26.4 32.6-1.8 1.4-1.9.3-3.5.3-1.4-.2-1.8 1.2-3.2-.1-10.9-8.4-24.5-22.4-33.9-32.8-48.8-54.4-78.4-126-83-198.9-13.7-187.8 137.7-353.7 326.4-355.4 32.3-1.2 60.7 3.8 91.1 10.2 40.8-12.5 84.1-20 126.8-22.7 14.9-.9 31.8-1.7 47.6-1.7 14.3-.1 10.2.4 5.7-4-95.3-72.6-222.6-103.4-342-81.6-87.9 15.2-171.4 59.2-233.8 122-145.9 141-172.4 385.8-54.2 556.4 23.3 35.3 53.7 68.1 89.5 90.9 10.8 5.4 24.2 1.5 35.7.8 17.7-2.5 36.9-5.9 54.4-10.5 44-11.3 90.3-30.8 117.7-68.6 14.5-21.6 20.5-50.3 30.3-74.4 26.7-74.8 53.9-150.9 80.6-225.8 3.2-8 5.1-15.9 8.3-22.6.2-.1 9.6-.4 20.8-.6 30.9-.8 86.5-.7 114.6-2.1 3.7-7.5 10.9-24.7 14.4-32.6 1.8-2.7 8.6-20.5 9.7-23-31.2-.1-81.9 1.1-114.6 1.5-11.5.2-21.1.2-21.2.1s0-1.7.2-3.7c2.8-22 13.5-42.6 27.9-59.4 34.2-40.3 81.4-49.2 133.7-49.9 109.2 106.6 128.3 283.4 46.6 411.5-30.6 47.2-72.5 90.5-123.8 114.8-94.1 42.5-43-62.9-15.6-100.2 4-5.9 4-5.9 3.3-7.6-1.3-2 .7-3.8-2.6-3.2-15.9 2.5-31.8 8.3-46.6 15.1-25.5 11.9-49.2 27.5-71.4 44.8-38.6 29.8-72.3 68.8-111.5 97.6-35.3 22.3-75.9 34.1-116.9 42.3-8.9 1.8-8.9 1.8-8.9 3.1.1 2.6-1.1 2.2 2.5 4.1 1.5.8 6.5 3.4 11.1 5.7 19.5 10 36 16.6 56.3 23.7 277 97 583.6-116.1 580.8-417z"/></svg>