<svg enable-background="new 0 0 1920 1080" viewBox="0 0 1920 1080" xmlns="http://www.w3.org/2000/svg"><path d="m219.8 820.1c-42.1.8-82.5-5.8-117.2-28.8-10.4-13.9 15.7-32.7 26.2-45.4 47.9-50.1 97.2-103 144.3-153.4 13.7-15.5 10.4-9.5 24.6.7 13.7 9-3.9 9.9-5.4 27.9-1.6 19.8 21.9 26.5 37.8 31 31.9 7.8 67.1.4 96.8-12.3 35.2-15.1 68.3-37.3 98.2-60.6 6.6-5.2 20.2-15.1 25.8-21.2.6-1.1-.1-2.2-3.8-5.9-38.2-36.5-89.6-58.9-141-69.4-22.8-4.3-38-6.1-63.8-6.7-12.1-1-22.7 1.3-22.9-2.7 1.2-4.1 7.7-8.4 12.2-11.3 12.9-7.8 28.3-14.6 43.1-18.9 73.6-22.6 155.9-10.9 224.2 22.6 39.3 17.3 23.7 26.1 52.1.6 5.7-5.7 124.6-111.1 96.1-108.6-33.8 7.9-70.7 16.6-105.6 21.3-65.6 8.6-141.5 11.3-199.5-25.1-11.9-9-37.1-23.9-33.8-40.3 4.9-9.5 11.7-7.6 24-10 12.8-1.9 29.1-4.6 40.5-6.5 53.8-9.4 110.5-20.1 164.2-30.4 14.9-3.1 24.8-4.6 37.8-7-10.3 28.5 8.2 47.9 34.3 57 26.9 9.1 71.9 5.7 100 2.6 10.2-1.2 23.9-3.6 33.9-5.4 10.6-1.8 11.4-1.9 2.1 5.2-51.9 39.2-93.5 98.4-136.7 146.3-10.7 12.6-24.1 28.1-34.1 39.9-4.6 3.7 6.5 10.6 15.4 20.7 12.7 11.1 16.3 21.2 25.9 16.3 27.1-21.6 57.5-51.9 84.3-74.5 29.9-26 60.6-53.1 92.7-76 54.3-37.4 115-72.8 177-95.8 14.3-5.1 29-9.8 43.7-12.7 7.9-1 19.1-4.7 25.5-1.3 3.5 2.7 3.3 8.4 1.4 12.4-1.2 2.7-2.2 3.4-12.3 8.9-6 3.3-16.6 9.2-23.6 13.1-61.9 35.1-120.7 74.5-175.1 119.8-51.5 44-103.7 96-130.6 159.2-11.4 27.7-20 61.8-8.2 90.4 5.9 14.5 20.5 25.1 35.5 29 5.7 1.6 5.7 1.6 474.7 1.9 395.8.1 469.2.4 469.9 1.1.9.9-.1 3.4-5.9 16.6-3.8 8.6-10.2 23.1-14.2 32.2-6 11.9-12.8 33.2-18.6 39.6-1.4.7-104.8.9-524.8.6-532.5-6.2-470 13-568.9-11.8-50.7-26.4-30.7-91.6-12.5-134 6.7-17.3 7.9-15.3 2.7-26.2-8.1-11.6-19.1-25.7-30-34.7-4.9-2.9-5-3.4-10.7 1.4-2.5 2.1-7.7 6.6-11.7 10-12 10.4-25.1 22.7-38.3 35.1-33.4 31-70.8 72.5-107.6 97.6-67.1 46.1-126.2 77.7-210.1 75.9zm1566.4-14.4c-29.2.3-31.3-41.5-1.9-44.3 29 .9 31.2 41.3 1.9 44.3zm.1-4c27.9-2.4 18-45-8.3-34.7-17.7 7.7-11.4 36.5 8.3 34.7zm6.3-5.7c-4.3.8-6.1-11.1-10-8.3-.9 2.2 1 7.7-3.1 7.8-4.5.8-2.1-21.2-1.4-23 5.1-3.6 16.3-1.3 16.1 6.4.6 3.1-3.7 6-3.4 8.5.3 2.2 5.7 7.2 1.8 8.6zm-6.7-14.3c2.8-.2 2.9-.3 2.9-2.7 0-2.1-.3-2.6-2.3-3.2-4-1.8-5.4 3-4 5.5.2.4 1.7.5 3.4.4zm-609.8-85.3c-52.8-1.9-76.7-40.5-59.9-89.6-1.3-8.4-18.8-4.9-26-8-7.9-2-15.1-4.7-21.4-9.4-4.4-3.2-4.7-3.4-8.6-3.1-10.5 1.2-12.1 9.8-19.1 18-7.3 10.1-14.8 19.3-23.4 29.1-31 33.7-80.3 73.7-127.5 50-56.9-31.1-26.1-111.8 14.2-144.3 18.9-16.2 44.6-25.7 69-29 44.5-4.7 26.1 9.6 39.7-25.5 17.4-37.9 58.9-5 62.8 24.1 1.4 7.7.8 15.5-.6 22.5-.8 4.7-6.4 16.5-6.2 21.1 1.5 19.6 33.9 29.6 50.6 26.2 16.1-2 20.6-14.6 30-25.9 38.2-48.5 80.6-97.3 131.1-133.8 30.6-22.5 65.6-44.7 101-59.1 17.4-5.9 50.1-19.6 63.8-5.2 6.5 6.9 7.2 16.5 4.2 25.2-17.2 53.1-72 94.2-114 128.6-33 24.4-14 7.8-5.7 42.7 2.3 7.9 1.9 25.5.6 33.8-1.2 7.6-1 7.8 3.3 10.7 32 2.3 68.4-11.1 92.7-32.5 7.1-6 15-15.3 20.1-22.4 3.5-4.3 7-12.7 11-15.3 1.4-.6 11.6-.9 38.3-.9 30.7 0 36.6.1 37.8 1.1 1.3 1 1.3 1.1.2 3-10.2 17.4-25.7 44.6-36.5 62.9-5.1 10.9-17.9 24.5-11.5 33.4 15.2 6.9 51.8-16.6 65-25.5 15.3-13.4 27.4-29 44.4-43.7 18.6-17.4 32.2-24.7 53.7-35.8 32.5-15.9 67.6-26.6 103.2-17.6 15.8 3.1 32.8 11.1 40.3 25.8 10.1 21.5-2 45.2-17.8 60.6-27.4 26.1-67 33.5-103.9 30-7.2-.2-15.4-3.3-19.7-1.7-2 2-3.1 11.4-2.9 14 5.4 23.2 36.1 30.8 58.9 30.6 33.7.6 58.7-16.3 81.9-38 6-5.4 14.1-15.1 18.2-20.7 2.6-4.5 7.3-6 11.2-2.7 4.4 9.4.7 9.1-17.9 48.1-15.3 30.1-19.5 37.8-21 38.6-1.4.6-27.8.9-105.2.9-96.4-1.7-94.5 3.6-115.9-4.2-27.1-14.6-21-44.7-29.7-44.2-18.6 12.7-38.1 29.4-59.3 39.3-16.7 7.9-34.5 15.6-53.2 14.8-18.9-.7-40.3-7.2-43.3-27.9-1.9-12.2 1.7-25.5 6.1-37.2 1.8-5.9 4.3-9.1 2.4-13.2-1.6-2.7-16.4 2.9-20.9 3.1-10.1 1.7-29 4.7-38.8 2.5-4.7-.6-9.2-1.2-10.2-1.3-4 .5-29.7 29.1-35.3 32.7-28.3 23.8-63 43.6-100.3 44.3zm65.2-62.3c10.5.1 38-10.1 16.1-18.8-12.7-6.6-24.5-18.6-31.4-30.7-3.7-3.6-5.2-2.4-8.1 3.5-11 20.2-1.4 45.9 23.4 46zm-250.8-24.3c18.8 1.5 43.4-19 44.8-37.4 0-4.7 0-4.7-5.6-10.3-3.4-3.4-6.9-8-9.1-11.7-3.3-5.4-9.5-21.3-11.5-26.4-2.7-6.1-11.4-1.2-15.5 1.4-10.8 9-29 27.2-33.5 40.8-9.3 22 6.1 44.9 30.4 43.6zm695.1-23.3c19.3-.7 38.7-11.1 52.9-23.3 21.9-18.5 7.2-49.4-20.2-32.4-15.3 11.7-35.1 32.3-44.9 48.9-6 8.5 6.1 6.5 12.2 6.8zm-389.9-75.9c31.3-19.3 64.8-46.9 86.8-76.8 5.3-8.5 15.9-21.6 16.6-31.9.8-5.3-2.1-10-5.4-13.8-7.6-8.4-20-4-28.3 1-12.6 7.4-21.5 18.3-33.1 30-17.9 18.9-38.8 41.4-53.7 61.5-4.4 6.5-12 16.1-13 23.6.3.6 1.7 1 4.9 1 7.6-.3 18.2 4.5 25.2 5.4zm263.7-37.4c-50.1.3-57.8-69.7-8.5-80 55.8-6 64.5 74.1 8.5 80z"/></svg>