<svg enable-background="new 0 0 2320 1080" viewBox="0 0 2320 1080" xmlns="http://www.w3.org/2000/svg"><path d="m105.9 538c29-27.8 30.5-27.3 30.5-71.1-1.8-37.4 2.7-67.3-21.2-92.7-4.6-4.3-9.9-8.7-11.7-9.9-2.7-1.6 23.6-2.1 119.2-2.2 68.9-.1 122.2.6 121.7 1.4s5.9 2.8 14.2 4.5c16.8 3.3 33 9 46.3 17.4 25 17.3 40.7 44.5 40.6 76.2 2.7 99.7-85.6 146.8-172.2 107.9-16.2-6.3-25.8-27.5-25.8-9.9-1.3 44.9-11.8 128.3 35.4 153.4 4.3.9 7.7 3.9 3 4.8-1.2 0-44.7-.2-96.6-.5-94.4-.5-94.4-.5-85.7-4.6 4.8-2.3 11.1-6.7 14.1-9.9 24.7-29.5 18.6-71.8 18.3-111-1.5-26.7-1.7-27.4-6.7-33.8-4.9-6.2-16.2-14.8-23.4-20zm721.3 152c-44.7 1.3-109.9-6.7-129.1-50.3-6.5-8.2-2.6-65-11.2-70.9-3.9-7.9-14-13.4-17.7-18.6-.3-1.2 1.9-3.5 4.7-5.2 7.3-4.4 15-16.6 17.4-24.9 4.4-18.9 1.6-50.2-4.6-68.5-3.5-13.3-13.3-19.6-24.2-24.7-12-3.8 160.9-4.1 142.2.3-40.2 22.6-25.4 95-27.1 145.2 4 55.4-5.5 61.4 28.1 74.3 13.6 3.7 18.6 2.6 30.9-2.6 30.7-14.7 17.6-41.7 21-101.2-3.1-67.6 9.5-88.1-25.7-115.1-6.3-3.3-6.3-3.3 68.1-3.4 43.3 0 73.7.6 72.7 1.5-8.5 4.9-20.3 12.3-23.9 22.7-4.6 12.2-6.8 41.7-6 56.3-2.4 31.7 29.6 43.6 21.5 48.2-1.8 1-6 4.2-9.3 7.1-19.7 14.8-7.3 42-13.4 63.2-10.1 54.1-64.7 65.5-114.4 66.6zm-236.8-269c14.3 44.3 20.2 64.5 29 95.6 2.7 16.8 21.7 26.4 34.3 32.6-1.8 7.6-16 13.1-12.3 24.5 7.6 32.4 25.6 83.3 55.3 101.8 13.8 7.5 3.9 6.2-12.4 6.4-10.5-.2-48.5-.7-84.4-.9-113.8-1.5-32.3 5.7-34.6-45.4 3.8-4.4-35-112.3-37.1-122.1-3-9.2-5.3-21.8-10-26.8-.7 0-3.7 9.2-6.7 20.3-7.2 27.4-21.7 73-29.8 101-6.1 23.5-9.9 32.2-3.6 49.2 3.6 8.1 12.8 16.6 20.1 20.5 4.8 2.5.9 2.7-55 2.8-33.1 0-60.2-.5-60.1-1.2 40-28 53.3-82.9 67.4-129.4 6.8-24.7 22.1-61.2 27.3-83.3 5.3-20.2-2.4-31.7-18-41.6-4.2-2.5-7.5-4.6-7.2-4.7 6.4-.2 112.9.4 137.8.7zm534.8 259.6c-89.5-1.5-68.1 4.8-48.7-23.2 8.3-15.6 9.2-30.7 10.7-52.6 2.6-34.5-1.6-35-22.7-53.2 1.3-11.4 20.5-13 22.4-44.3.8-25.8 1.4-70.2-25-83.5-2.4-1-5.1-2.5-6.1-3.3-4.4-1.9 146.9-1.7 142.7-.1-34.2 25.1-20.8 67.4-24.2 130.3 1.2 57.8-2.1 80.4 6.2 110.5 15.2 26.7 29.6 16.8-55.3 19.4zm335.5-259.7c107.1.9 131.1-2.2 137.9-.4-33 18.1-31.7 29.2-20.5 65.8 2.9 8.3 15.9 46.4 28.7 84.7 23.4 69.7 23.4 69.7 35.6 83.5 11.4 12.9 12.5 13.6 15.3 11.1 15.1-22 11.9-71.3 8-96.4-2.1-6.1-13.4-13-17.6-17-8.9-6.8 21.6-12.8 20.6-43.1 1.5-14.2-1.5-48.8-5.2-62-4.5-15-13.1-21-25-26.5 5-2 102.1-1.5 124.3-1.5 22.9 45.9 54.3 97 77.9 143.7 21.9 39.9 14.3 36.3 15.6-41.6-1.9-79.6 5.1-81-30.8-100.7 0-.8 24.1-1.5 53.7-1.5 29.7 1.4 67.2-2.8 48.1 5.2-21.6 13-19.3 34.8-21.6 62-.7 17.2-.4 27.7 1.1 34.5.9 10.5 13.2 20.6 21.3 28.9-6.1 5.2-18.8 16.1-20.8 22.1-2.4 14.3-5.7 84.5 4.6 97.5 32-24.1 28.5-38.9 46.8-87.4 8.8-26.2 17.3-52.7 19-58.9 6.4-27.5 38.4-78.4 2.2-95.6-10-5.7-10-5.7 58.3-6.1 53.2-.4 68.8 0 70.5 1.7 8.4 23.6 18.2 60.3 26.8 86.2 4.2 14.6 6.5 19.4 11.4 24.6 3.9 6.1 22.7 11.6 24.3 17-6.9 11.6-18 15.6-10.4 32.6 9 24.8 21.4 60 39.8 80.1 5 5.4 12.4 11.5 16.4 13.5 7.3 3.6 7.3 3.6-77.5 3.6-80.3 0-84.6-.2-80.5-2.9 2.4-1.6 6.8-5.1 9.9-7.8 21.5-22.8 17.3-38.5 5.8-69.5-4.8-13.3-15-43.7-22.7-67.5s-14.6-43.9-15.3-44.6-5.3 12.7-10.2 29.9-13.7 47.4-19.4 67.1c-8 38.1-26 54.2-4.6 81.1 3.9 4.5 9.9 9.4 13.3 10.9 5.8 2.7 3.6 2.8-45.4 3.3-45.8.8-108.6 0-154.4-.5-25.2-43.7-83.1-156-98.5-179.1-.8 0-1.1 31.3-.7 69.6 2.6 75.3-3.7 63.7 10.4 93.2 4 6.4 12.4 11.5 17.9 14.9 2.5 1.6-18.8 2.1-97.2 2.1-78.3 0-99.7-.5-97.2-2.1 13.2-8.4 26.3-17.4 24.3-37.3-1.9-34.2-27.1-95.9-34.4-130.1-5.1-21.5-7.7-38.6-16.9-3-3.3 11.7-13.2 42.6-22.1 68.8-14.1 50.4-29.8 62-1.2 92.9 31.1 18.5-9.5 7.5-119.8 10.9-133.9.1-133.9.1-127-6.7 22-34.9 11.7-15.8 14.9-122.3.2-91.6.2-91.7-3.9-104.6-2.8-12.5-11.9-20.6-17.6-27.1 0-.4 31.8-.6 70.6-.6 124.9.8 35.6-6.9 39.2 53.6-.7 10-1.4 24-1.4 31.2-1 16.2 6.3 28.7 16.8 39 11.3 9.3 4.2 9.2-4 16.8-17.4 15.9-11.2 11.7-13 49.8 0 33.6 0 33.8 4.9 43.8 7.1 13.8 6.9 10.4 15.5-.7 11.9-18 33.9-64.8 34.3-85.1.2-3.8-17.7-16.3-12.2-19.3 14.8-9.9 31-13.1 34.4-35.7 7.2-26.7 19.5-66 28.6-92zm-238.8 189.9c-6.8-5.5-14-24.9-20.1-35-5-10.6-19.4-33.3-21.6-42 .4-.7 19.2-1 41.7-.7 40.9.5 40.9.5 39.8 4.3-7.6 14.7-30.6 59.5-39.8 73.4zm-973.8-192c-.1 107.8-3.4 43 45 44.1 9.5 0 23.8-.9 27.4 5.5-1.4 3.9-13.2 17.3-14.7 21.7-5.6 16.8-.2 42.4 15.7 52.3 11.7 8 23.4-1.3 32.6-10 27.1-27.4 12.4-75.8-17-95.6-25.5-17.2-57.6-15.7-89-18z"/></svg>