<svg enable-background="new 0 0 1080 1080" viewBox="0 0 1080 1080" xmlns="http://www.w3.org/2000/svg"><path d="m543.2 979.7c-242.3 3-445-197-443.1-439.9-1.8-247.7 208.2-449.3 455.2-439.6 274.2 9.2 473.1 266 414.6 533.8-42.8 199-222.9 345.4-426.7 345.7zm263.1-131.8c1.9-.9 1.8-.3-.3-4.7-3.8-7.6-6.2-13.1-9.6-20.9-11.6-27.2-22.1-58.1-29.9-86.7-37.3-136.5-35-284.3 10.5-418.6 9-27 19.7-53.4 31.7-79 .8-1.6 2.5-5.1 2.9-6.6.1-.6.1-.6-1.5-.5-20.2 2.8-40.1 9.5-58.9 17.7-61 26.9-109.5 77.2-138.4 136.8-12.8 26.2-6.2 22.7-16.3-5.5-12.8-37.4-25.9-78.4-48.3-111.2-9.2-10.4-6.4-13.3-15 1.3-19.5 32.7-36.8 66.2-50.1 101.7-2.9 8.1-6.7 19.3-8.6 27.4-1.1 3.1-1 7.5-2.9 1.2-32.9-84.8-109-155.8-199.6-171.5 45.4 107.7 68.2 226.7 62.6 344.1-3.4 69-16.7 137.6-40.7 202.4-8.3 23.2-19.3 46.8-29.7 69.1 14.5-1.4 29.1-5.5 43.2-9.9 68.8-22 127.8-73.6 156.5-140.2 2.8-6.3 6-14.4 8.4-21 1.2-5 1.9 1.3 3.2 4.7 12.1 39.1 26 79.3 46.5 114.8 2.6 3.7 14.5 24 16.8 19.4 32.3-40.9 51.9-90.9 66.4-140.5 38.5 80.7 107.4 159 201.1 176.2zm-465.3-87.5c28.1-85.2 42.9-176.1 38.8-266-1.9-43.9-7.6-86.7-18.4-129.5-3.7-15.4-9.4-33-14.5-47.3 1.8.6 4.6 1.8 6.9 3.1 80.3 45.7 108 145.2 103.3 232.6-2.4 82-41.7 167.4-116.1 207.1zm396-.3c-64.7-34-103.8-105.2-113.2-176.1-13.1-96.3 11.3-213.8 102.5-264.4 2.3-1.3 5.6-3.1 4.7-1-3.9 10.5-8.1 23.3-11.1 34.4-12.3 44.7-19 91.1-21.3 137.2-4.8 91.1 10.4 184.1 38.4 269.9zm-198.1-44.2c-48.4-82.3-53.9-188.3-28.6-279.9 6.8-24.6 15.6-49.7 27-72.6 1.7-2.5 1.6-5.6 3.1-3.1 2.2 4 7.6 13.9 9.8 18.9 51.3 105.5 41.2 233.7-11.3 336.7zm1.5-129.7c33.2-3.8 38.5-54.7 26.4-79.4-16.7-35.5-50.3-22.9-58.1 10.8-6.6 23.8 1.3 67.6 31.7 68.6z"/></svg>