<svg enable-background="new 0 0 1080 1080" viewBox="0 0 1080 1080" xmlns="http://www.w3.org/2000/svg"><path d="m553.1 980c-199.1 6.6-381.3-127.9-434.5-318.7-80.8-279.7 130.4-563.6 423.5-561.3 285.6.3 492.9 273.2 422.9 548.3-37.6 153.5-163.6 280.5-317.3 318.2-18.4 5.2-41 8.3-58.2 10.9-6 4.3 2.1 1.9-36.4 2.6zm-7.8-49c169.7.5 326.1-123.1 369.2-286.2 69.3-253.6-127-505.4-391-494.1-244.3 9.8-417.8 244.8-361 481.4 40.2 173.5 203.6 304 382.8 298.9zm213-228.6c57.7-173.1 73.6-223.5 106-317.8 1.7-8.5 9.7 17.4 11.7 20.2 36 88.5 34.5 192.8-3.2 280.1-4.4 10.3-12.8 27-18.3 36.8-4 7.2-4.6 8-6.4 8.4-1.1.2-122 .6-268.7.7-151.8 2.1-265.9-3.4-272.6 2.8-1.1 8.1 12.2 5.3 25.3 7.2 85.2 6.8 171.7 16.4 255.8 30 57.4 9.8 115.2 20.4 169.6 40 6.4 3 13.8 4 16 7.6-9.3 9.6-27 21.5-39 29.4-37.5 24-79.7 41.2-123.3 49.9-73.1 14.6-152.4 6.2-220.3-25.2-156.3-70.4-241.4-244.6-204.2-411.2 5-21 11.8-46.2 21.5-64.9 13.7 36.5 63.8 192.6 79.9 238.7 22.1 66.2 22.1 66.2 25.6 66.6-.4.5 159 .5 158.8 0 2.6-.4 2.6-.4 6.2-13.9 7.4-27.9 23.7-90.6 32.2-123 8.7-30.5 14.6-61.8 23-83.8.4-.1 1.1.9 1.6 2.3.5-2.5 56.3 214.1 56.5 212.4 1.6 5.7 1.6 5.7 5.4 6 9.8.8 130.3.7 160.9.7zm-155-382.1c-103.1 0-134.2.2-135.6.4-2.6.4-2.6.4-8.3 22.3-15.9 61.2-36.2 140.2-51.9 200.6-2.1 6.7-3.9 17-5.6 9.7-11-44.4-25.9-105.9-37.6-154.4-6.8-26.7-13.9-59.4-19.1-77.1-.3-.3-1.8-.7-3.3-1-1.5-.6-85.2-.5-86.7-1-2.3-.4-2.3-.4.9-4.6 62.5-80.7 161.4-132.9 263.5-138.1 92.2-5.5 186 26.2 255.6 86.8 17.8 15.6 39.1 36.2 51.7 55.7-.2.2-23.4.5-51.4.7-32.8.2-51.2.5-51.6.9-11.7 41.8-45.7 188.6-56.6 229.8-1.2 3.2-1.3 7.2-3.2 3.5-17.4-63.1-43.7-171-60.8-234.2z"/></svg>